<svg xmlns="http://www.w3.org/2000/svg" width="601" height="512"><g stroke="#449FDB"><path opacity=".3" d="M16 0v512"/><path d="M32 0v512"/><path opacity=".3" d="M48 0v512"/><path d="M64 0v512"/><path opacity=".3" d="M80 0v512"/><path d="M96 0v512"/><path opacity=".3" d="M112 0v512"/><path d="M128 0v512"/><path opacity=".3" d="M144 0v512"/><path d="M160 0v512"/><path opacity=".3" d="M176 0v512"/><path d="M192 0v512"/><path opacity=".3" d="M208 0v512"/><path d="M224 0v512"/><path opacity=".3" d="M240 0v512"/><path d="M256 0v512"/><path opacity=".3" d="M272 0v512"/><path d="M288 0v512"/><path opacity=".3" d="M304 0v512"/><path d="M320 0v512"/><path opacity=".3" d="M336 0v512"/><path d="M352 0v512"/><path opacity=".3" d="M368 0v512"/><path d="M384 0v512"/><path opacity=".3" d="M400 0v512"/><path d="M416 0v512"/><path opacity=".3" d="M432 0v512"/><path d="M448 0v512"/><path opacity=".3" d="M464 0v512"/><path d="M480 0v512"/><path opacity=".3" d="M496 0v512"/><path d="M512 0v512"/><path opacity=".3" d="M528 0v512"/><path d="M544 0v512"/><path opacity=".3" d="M560 0v512"/><path d="M576 0v512"/><path opacity=".3" d="M592 0v512M0 16h601"/><path d="M0 32h601"/><path opacity=".3" d="M0 48h601"/><path d="M0 64h601"/><path opacity=".3" d="M0 80h601"/><path d="M0 96h601"/><path opacity=".3" d="M0 112h601"/><path d="M0 128h601"/><path opacity=".3" d="M0 144h601"/><path d="M0 160h601"/><path opacity=".3" d="M0 176h601"/><path d="M0 192h601"/><path opacity=".3" d="M0 208h601"/><path d="M0 224h601"/><path opacity=".3" d="M0 240h601"/><path d="M0 256h601"/><path opacity=".3" d="M0 272h601"/><path d="M0 288h601"/><path opacity=".3" d="M0 304h601"/><path d="M0 320h601"/><path opacity=".3" d="M0 336h601"/><path d="M0 352h601"/><path opacity=".3" d="M0 368h601"/><path d="M0 384h601"/><path opacity=".3" d="M0 400h601"/><path d="M0 416h601"/><path opacity=".3" d="M0 432h601"/><path d="M0 448h601"/><path opacity=".3" d="M0 464h601"/><path d="M0 480h601"/><path opacity=".3" d="M0 496h601"/></g><path fill="#d7efff" d="M165.343 52.967h406.83c12.893 0 23.343 10.452 23.343 23.343v406.83c0 12.892-10.452 23.344-23.343 23.344h-406.83c-12.893 0-23.344-10.452-23.344-23.344V76.31c0-12.892 10.452-23.343 23.344-23.343z"/><path fill="#4a4a4a" d="M567.971 512H169.533c-18.226 0-33.049-14.823-33.049-33.05V80.512c0-18.227 14.823-33.05 33.049-33.05h398.438c18.226 0 33.049 14.823 33.049 33.05v398.415c0 18.226-14.823 33.05-33.049 33.05zM169.532 58.483c-12.159 0-22.029 9.894-22.029 22.029v398.415c0 12.159 9.894 22.029 22.029 22.029H567.97c12.159 0 22.029-9.894 22.029-22.029V80.512c0-12.159-9.894-22.029-22.029-22.029z"/><path fill="#068292" d="M165.331 52.967h406.842c12.886 0 23.343 10.457 23.343 23.343v92.589H141.999V76.311c0-12.886 10.457-23.343 23.344-23.343z"/><path fill="#4a4a4a" d="M601.02 174.403H136.482V80.512c0-18.227 14.823-33.05 33.049-33.05h398.438c18.226 0 33.049 14.823 33.049 33.05zm-453.517-11.021H590V80.511c0-12.159-9.894-22.029-22.029-22.029H169.533c-12.159 0-22.029 9.894-22.029 22.029z"/><path fill="#f3f9ff" d="M94.9 52.967h406.842c12.886 0 23.343 10.457 23.343 23.343v385.247c0 24.788-20.139 44.927-44.927 44.927H94.899c-12.886 0-23.344-10.457-23.344-23.344V76.31c0-12.886 10.457-23.343 23.344-23.343z"/><path fill="#4a4a4a" d="M472.05 512H99.103c-18.227 0-33.049-14.823-33.049-33.05V80.512c0-18.227 14.823-33.05 33.049-33.05h398.415c18.226 0 33.049 14.823 33.049 33.05v372.947c0 32.275-26.255 58.529-58.529 58.529h.024zM99.102 58.483c-12.159 0-22.029 9.894-22.029 22.029v398.415c0 12.159 9.894 22.029 22.029 22.029h372.947c26.184 0 47.52-21.313 47.52-47.52V80.512c0-12.159-9.894-22.029-22.029-22.029z"/><path fill="#31c1d4" d="M94.9 52.967h406.842c12.886 0 23.343 10.457 23.343 23.343v92.589H71.556V76.311c0-12.886 10.457-23.343 23.344-23.343z"/><path fill="#4a4a4a" d="M530.555 174.403H66.052V80.512c0-18.227 14.823-33.05 33.049-33.05h398.415c18.226 0 33.049 14.823 33.049 33.05v93.891zM77.037 163.382h442.509V80.511c0-12.159-9.894-22.029-22.029-22.029H99.102c-12.159 0-22.029 9.894-22.029 22.029v82.871h-.023z"/><path fill="#dcfdff" d="M156.786 95.863c0 8.044-6.521 14.565-14.565 14.565s-14.565-6.521-14.565-14.565 6.521-14.565 14.565-14.565 14.565 6.521 14.565 14.565z"/><path fill="#4a4a4a" d="M142.221 115.944c-11.067 0-20.069-9.014-20.069-20.069s9.014-20.069 20.069-20.069 20.069 9.014 20.069 20.069-9.013 20.069-20.069 20.069zm0-29.13c-5 0-9.06 4.061-9.06 9.061s4.061 9.061 9.06 9.061 9.06-4.061 9.06-9.061-4.061-9.061-9.06-9.061z"/><path fill="#dcfdff" d="M260.677 94.983c0 8.044-6.521 14.565-14.565 14.565s-14.565-6.521-14.565-14.565 6.521-14.565 14.565-14.565 14.565 6.521 14.565 14.565z"/><path fill="#4a4a4a" d="M246.112 115.052c-11.067 0-20.069-9.014-20.069-20.069s9.013-20.069 20.069-20.069 20.069 9.014 20.069 20.069-9.014 20.069-20.069 20.069zm0-29.13c-5 0-9.06 4.061-9.06 9.061s4.061 9.061 9.06 9.061 9.06-4.061 9.06-9.061-4.061-9.061-9.06-9.061z"/><path fill="#dcfdff" d="M260.677 95.863c0 8.044-6.521 14.565-14.565 14.565s-14.565-6.521-14.565-14.565 6.521-14.565 14.565-14.565 14.565 6.521 14.565 14.565z"/><path fill="#4a4a4a" d="M246.112 115.944c-11.067 0-20.069-9.014-20.069-20.069s9.013-20.069 20.069-20.069 20.069 9.014 20.069 20.069-9.014 20.069-20.069 20.069zm0-29.13c-5 0-9.06 4.061-9.06 9.061s4.061 9.061 9.06 9.061 9.06-4.061 9.06-9.061-4.061-9.061-9.06-9.061z"/><path fill="#dcfdff" d="M364.579 96.379c0 8.044-6.521 14.565-14.565 14.565s-14.565-6.521-14.565-14.565 6.521-14.565 14.565-14.565 14.565 6.521 14.565 14.565z"/><path fill="#4a4a4a" d="M350.014 116.448c-11.067 0-20.069-9.013-20.069-20.069s9.014-20.069 20.069-20.069 20.069 9.013 20.069 20.069-9.014 20.069-20.069 20.069zm0-29.129c-5 0-9.06 4.061-9.06 9.061s4.061 9.061 9.06 9.061 9.06-4.061 9.06-9.061-4.061-9.061-9.06-9.061z"/><path fill="#dcfdff" d="M468.458 96.872c0 8.044-6.521 14.565-14.565 14.565s-14.565-6.521-14.565-14.565 6.521-14.565 14.565-14.565 14.565 6.521 14.565 14.565z"/><path fill="#4a4a4a" d="M453.893 116.942c-11.067 0-20.069-9.014-20.069-20.069s9.014-20.069 20.069-20.069 20.069 9.014 20.069 20.069-9.014 20.069-20.069 20.069zm0-29.131c-5 0-9.06 4.061-9.06 9.061s4.061 9.061 9.06 9.061 9.06-4.061 9.06-9.061-4.061-9.061-9.06-9.061zm-311.672 13.568c-13.931 0-27.404-5.833-36.946-15.985-9.683-10.293-14.518-23.778-13.65-37.92C93.21 22.041 113.561 1.667 138.981.106c14.143-.915 27.627 3.967 37.921 13.649 10.152 9.541 15.985 23.015 15.985 36.946 0 3.039-2.476 5.505-5.505 5.505s-5.505-2.477-5.505-5.505c0-11.068-4.436-21.337-12.511-28.919-8.051-7.582-18.625-11.361-29.705-10.692-19.882 1.232-35.82 17.159-37.064 37.063-.704 11.091 3.099 21.63 10.692 29.705 7.582 8.075 17.851 12.511 28.918 12.511 3.04 0 5.505 2.477 5.505 5.505s-2.476 5.505-5.505 5.505l.024-.023zm103.891.504c-13.931 0-27.405-5.833-36.946-15.985-9.683-10.293-14.518-23.778-13.649-37.92 1.584-25.421 21.935-45.795 47.356-47.38 14.166-.892 27.627 3.967 37.921 13.649 10.152 9.541 15.985 23.015 15.985 36.946 0 3.039-2.476 5.505-5.505 5.505s-5.505-2.477-5.505-5.505c0-11.068-4.437-21.337-12.511-28.919-8.051-7.582-18.602-11.361-29.705-10.692-19.881 1.232-35.82 17.159-37.064 37.063-.704 11.091 3.099 21.63 10.692 29.705 7.582 8.075 17.851 12.511 28.918 12.511 3.04 0 5.505 2.477 5.505 5.505s-2.476 5.505-5.505 5.505h.024zm103.902.493c-13.931 0-27.404-5.833-36.946-15.985-9.683-10.293-14.518-23.778-13.649-37.92 1.584-25.421 21.935-45.795 47.38-47.356 14.19-.892 27.627 3.967 37.921 13.649 10.152 9.541 15.985 23.015 15.985 36.946 0 3.039-2.476 5.505-5.505 5.505s-5.505-2.477-5.505-5.505c0-11.068-4.437-21.337-12.511-28.919-8.051-7.582-18.625-11.361-29.705-10.692-19.882 1.232-35.82 17.159-37.063 37.063-.704 11.091 3.099 21.63 10.692 29.705 7.582 8.075 17.851 12.511 28.918 12.511 3.039 0 5.505 2.477 5.505 5.505s-2.476 5.505-5.505 5.505v-.023z"/><path fill="#4a4a4a" d="M453.893 102.893c-13.931 0-27.404-5.833-36.946-15.985-9.683-10.293-14.518-23.778-13.649-37.92 1.584-25.421 21.935-45.795 47.356-47.356 14.166-.892 27.627 3.967 37.921 13.649 10.152 9.541 15.985 23.015 15.985 36.946 0 3.039-2.476 5.505-5.505 5.505s-5.505-2.477-5.505-5.505c0-11.068-4.437-21.337-12.511-28.919-8.051-7.582-18.625-11.361-29.705-10.692-19.882 1.232-35.82 17.159-37.063 37.063-.704 11.091 3.099 21.63 10.692 29.705 7.582 8.075 17.851 12.511 28.918 12.511 3.039 0 5.505 2.477 5.505 5.505s-2.476 5.505-5.505 5.505l.024-.023zm4.624 360.495c-3.039 0-5.505-2.476-5.505-5.505s2.476-5.505 5.505-5.505c33.378 0 60.536-27.17 60.536-60.536 0-3.039 2.476-5.505 5.505-5.505s5.505 2.476 5.505 5.505c0 39.469-32.087 71.557-71.557 71.557zM144.393 418.59v-39.399l79.608-104.654c3.615-4.671 6.42-9.495 8.38-14.447s2.946-9.541 2.946-13.791v-.328c0-6.279-2.03-11.114-6.067-14.518s-9.776-5.117-17.229-5.117-12.957 2.359-17.452 7.101c-4.53 4.742-7.253 11.454-8.215 20.186v.165h-44.833v-.165c1.49-22.006 8.544-39.094 21.149-51.206 12.605-12.136 28.965-18.179 49.058-18.179 21.794 0 38.695 5.269 50.666 15.797s17.945 25.421 17.945 44.668v.165c0 10.528-1.842 20.984-5.505 31.348s-8.803 19.764-15.398 28.168l-57.109 72.12h79.28v42.122l-137.222-.047zm159.545-35.585v-40.209l71.463-156.024h49.457l-69.55 154.111h104.184v42.122zm93.656 35.738V282.166h43.718v136.577z"/><path fill="#d7efff" d="M458.517 457.872H71.556c-36.477 0-66.052-29.575-66.052-66.053h386.984c0 36.476 29.552 66.053 66.029 66.053z"/><path fill="#4a4a4a" d="M458.517 463.388H71.556c-39.517 0-71.557-32.041-71.557-71.557a5.514 5.514 0 015.505-5.505h386.984a5.513 5.513 0 015.505 5.505c0 33.378 27.147 60.536 60.513 60.536v11.021zM17.616 397.336c-3.427 0-6.091 3.099-5.434 6.443 5.552 27.675 30.057 48.565 59.351 48.565h348.864c-17.346-10.974-29.658-29.176-32.697-50.337a5.484 5.484 0 00-5.434-4.695H17.617z"/></svg>