<svg version="1.1" xmlns="http://www.w3.org/2000/svg" width="32" height="32" viewBox="0 0 32 32" >
<title>call</title>
<path fill='#ffffff' d="M9.637 14.571c1.707 3.339 4.452 6.085 7.791 7.828l2.634-2.634c0.297-0.297 0.779-0.408 1.187-0.26 1.336 0.408 2.782 0.668 4.23 0.668 0.668 0 1.187 0.52 1.187 1.187v4.118c0 0.668-0.52 1.187-1.187 1.187-11.13 0-20.146-9.016-20.146-20.146 0-0.668 0.519-1.187 1.187-1.187h4.155c0.631 0 1.187 0.519 1.187 1.187 0 1.484 0.223 2.894 0.668 4.23 0.148 0.408 0.037 0.89-0.297 1.224l-2.597 2.597z"></path>
</svg>
