<svg version="1.0" xmlns="http://www.w3.org/2000/svg" width="29.333" height="29.333" viewBox="0 0 320 320"><g fill="#999"><path d="M65.4.9c-2.7 1.2-8.2 7.6-8.9 10.4-.4 1.3-.5 14.2-.3 28.8.3 29.3.5 29.9 7.1 33.9 2.8 1.7 5.1 2 17.1 2 12.8 0 14.3-.2 17.2-2.2 6.4-4.4 6.5-5.2 7.1-34.6.4-26.5.4-26.7-1.9-30.6C98.4 1.2 96.6.5 81.2.3 73.7.2 66.6.4 65.4.9zm160.1.1c-1.1.4-3.7 2.6-5.8 4.9L216 10v27.6c0 29.6.1 30.4 5.5 35.4 2.6 2.4 3.2 2.5 18 2.8l15.4.3 4.3-4 4.3-4 .3-28.7.3-28.7-2.5-3.7c-3.9-5.9-7.4-7-21.8-6.9-6.7 0-13.2.4-14.3.9z"/><path d="M18.7 43.4c-6 2.2-12.3 8-15.4 14.4L.5 63.5v117c0 97.4.2 117.7 1.4 120.9 1.7 4.9 9.2 13.1 14.6 15.9l4 2.2h279l4.7-2.3c5.2-2.6 11.1-8.7 13.7-14.2 1.4-3.2 1.6-14.5 1.6-122 0-107.2-.2-118.8-1.6-122.1-2.4-5.2-7.6-10.7-13.3-14-5-2.8-5.4-2.9-19.3-2.9H271v12.2c0 14.1-1.3 18.2-7.3 23.5-5.5 4.8-9.6 5.8-24.2 5.8-11.5-.1-13.6-.3-17.7-2.4-5.2-2.5-9.3-6.8-11.5-11.8-.8-2.1-1.3-7.4-1.3-15.3V42h-96.7l-.7 4.6c-.3 2.6-.6 8.2-.6 12.6 0 9.1-1.4 13-6.1 17.5-4.7 4.5-9.5 6.2-19.1 6.9-17.3 1.3-27.8-2.1-33.5-10.7-2.5-3.7-2.7-5-3.1-17.5L48.7 42H35.6c-8.3.1-14.5.6-16.9 1.4zM306 211v86.1l-4.5 4.5-4.5 4.4-136.8-.2c-129.9-.3-136.9-.4-139.5-2.1-1.6-1-3.7-3.2-4.7-5-1.9-3.1-2-5.7-2-87.9 0-79.8.1-84.7 1.8-85.1.9-.3 66.6-.5 146-.6L306 125v86z"/><path d="M103.5 154.1c-7 1.4-16.3 6.1-21.8 10.9-4.7 4.2-10.1 13.6-11.3 19.7l-.6 3.3h27l.7-3c2.1-9.5 14.3-14.8 23.5-10.2 5.3 2.6 8 7.4 8 14.1 0 9.5-2.5 13-24.5 35.7-21.3 22-25.3 26.8-29.2 35.2-2.4 5.1-5.3 14.3-5.3 16.9 0 1 9 1.3 41.5 1.3H153v-21l-24.2-.2-24.3-.3 19.1-19.5c20.5-21 25.3-27.6 28-38.1 4.8-18.6-3.7-36.7-20.1-42.8-6.4-2.4-20.9-3.4-28-2zm83.8 38.6L160 232.4V251h49v27h27v-26.9l7.3-.3 7.2-.3-.1-9.8c-.1-5.4-.4-10-.6-10.3-.3-.2-3.5-.7-7.2-1.1l-6.6-.6V153h-21.5l-27.2 39.7zM209 212v17h-24.1l11.3-16.9c6.2-9.4 11.6-17 12.1-17 .4-.1.7 7.5.7 16.9z"/></g></svg>