<?xml version="1.0" encoding="utf-8"?>
<svg version="1.1" xmlns="http://www.w3.org/2000/svg" xmlns:xlink="http://www.w3.org/1999/xlink" x="0px" y="0px" viewBox="0 0 29 25" style="enable-background:new 0 0 29 25;" xml:space="preserve">
<g><path fill="#f68038" d="M17.8,21.9c-0.5,1.6-1.9,2.3-3.4,1.7c-0.6-0.2-1.1-0.6-1.6-0.9c-3.3-2.5-6.6-5-10-7.5c-2.1-1.6-2.3-2.7-0.7-4.8
C2.5,9.8,3.1,9.4,3.6,9C5.7,7.3,7.9,5.7,10,4.1c1.3-1,2.6-2,4-2.7c2-1,3.7-0.1,4,2c0.2,1.5,0.9,1.8,2.2,1.8c1.8,0,3.7,0.1,5.5,0.3c2,0.2,2.6,1.4,2.4,3.4c-0.2,2.3-0.2,4.7,0.1,7c0.2,1.9-0.4,3.5-2.4,3.6c-2.4,0.2-4.9,0-7.4,0C18.3,20.3,18.1,21.1,17.8,21.9zM13.6,4.5c-3.1,2.3-6.1,4.6-9.2,6.9c-1.1,0.8-1.1,1.2,0,2.1c2.9,2.2,5.8,4.4,8.7,6.6c0.2,0.2,0.4,0.4,0.7,0.5c0.5,0.2,1,0.4,1.5,0.6c0.1-0.6,0.3-1.2,0.3-1.7c0-0.3-0.1-0.6-0.1-0.9c-0.2-1.1,0.3-1.7,1.4-1.7c2.5,0,5.1-0.1,7.6,0.1c1.2,0.1,1.5-0.3,1.5-1.4c0-2.2,0-4.3,0-6.5c0-0.9-0.3-1.2-1.2-1.2c-2.5,0.1-5.1,0-7.6,0c-1.3,0-1.7-0.5-1.7-1.7c0-1,0.1-2,0.2-3.3C14.9,3.5,14.2,4,13.6,4.5z"/>
</g>
</svg>
