<svg xmlns="http://www.w3.org/2000/svg" viewBox="0 0 29 25"><path fill="#f68038" d="M17.8 21.9c-.5 1.6-1.9 2.3-3.4 1.7-.6-.2-1.1-.6-1.6-.9-3.3-2.5-6.6-5-10-7.5-2.1-1.6-2.3-2.7-.7-4.8.4-.6 1-1 1.5-1.4C5.7 7.3 7.9 5.7 10 4.1c1.3-1 2.6-2 4-2.7 2-1 3.7-.1 4 2 .2 1.5.9 1.8 2.2 1.8 1.8 0 3.7.1 5.5.3 2 .2 2.6 1.4 2.4 3.4-.2 2.3-.2 4.7.1 7 .2 1.9-.4 3.5-2.4 3.6-2.4.2-4.9 0-7.4 0-.1.8-.3 1.6-.6 2.4zM13.6 4.5c-3.1 2.3-6.1 4.6-9.2 6.9-1.1.8-1.1 1.2 0 2.1l8.7 6.6c.2.2.4.4.7.5l1.5.6c.1-.6.3-1.2.3-1.7 0-.3-.1-.6-.1-.9-.2-1.1.3-1.7 1.4-1.7 2.5 0 5.1-.1 7.6.1 1.2.1 1.5-.3 1.5-1.4V9.1c0-.9-.3-1.2-1.2-1.2-2.5.1-5.1 0-7.6 0-1.3 0-1.7-.5-1.7-1.7 0-1 .1-2 .2-3.3-.8.6-1.5 1.1-2.1 1.6z"/></svg>