<svg id="_Слой_2" data-name="Слой 2" xmlns="http://www.w3.org/2000/svg" viewBox="0 0 721.23 709.08"><defs><style>.cls-1{fill:#fff}</style></defs><g id="_Слой_1-2" data-name="Слой 1"><path class="cls-1" d="M368.26 71.02c-78.53 1.18-144.82 28.02-200.09 81.65-6.9 6.7-14.49 11.49-24.39 12.24-15.15 1.14-29.06-6.61-35.45-20.11-6.5-13.74-4.12-29.86 7.01-40.57 10.67-10.27 21.61-20.37 33.25-29.5C193.12 39.8 243.41 17.19 298.9 6.37 329.57.39 360.54-1.29 391.79.95c66.88 4.8 127.81 26.27 181.95 65.68 74.5 54.23 121.23 126.79 140.25 217.09 6.32 30 8.43 60.37 6.61 90.85-9.52 158.94-119.46 284.94-263.31 322.68-35.69 9.36-72 13.46-108.74 11.26-90.16-5.4-167.87-39.5-232.43-102.94-14.69-14.44-15.03-36.78-1.02-51.11 13.99-14.31 36.37-14.59 51.07-.06 29.82 29.48 64.13 51.8 103.55 66.18 34.95 12.75 71 18.08 108.21 16.77 114.5-4.02 211.79-78.03 251.57-177.5 11.76-29.41 18.32-59.91 19.95-91.61 6.23-121.56-66.11-229.05-171.69-274.37-26.74-11.48-54.63-18.84-83.71-21.2-9.12-.74-18.27-1.17-25.78-1.64z"/><path class="cls-1" d="M260.95 381.79c-17.17 0-34.33.11-51.5-.09-3.67-.04-5.12 1.25-6.32 4.61-14.1 39.67-41.94 64.07-83.34 71-52.82 8.84-105.22-25.81-117.34-80.58-13.02-58.87 27.09-116.55 86.44-125.46 49.24-7.39 97.84 22.27 113.76 69.77 1.63 4.87 3.73 6.16 8.7 6.15 91.66-.16 183.32-.12 274.98-.1 14.14 0 26.3 10.31 27.54 23.22 1.49 15.57-7.22 28.48-21.89 30.93-7.15 1.19-14.62.47-21.94.55-4.83.06-9.68.22-14.5-.05-3.61-.2-4.59 1.19-4.52 4.62.16 7.99.12 16-.1 23.99-.41 14.68-12.57 26.36-27.24 26.36-14.44 0-26.92-11.89-27.4-26.41-.27-8.16-.17-16.33-.03-24.5.05-3.03-.96-4.17-4.03-4.05-4.99.19-10.01.27-14.99-.02-3.75-.22-4.4 1.44-4.39 4.71.1 22.83.09 45.66.03 68.49-.04 14.88-8.67 25.3-23.15 28.16-15.47 3.06-31.4-9.7-31.51-25.53-.16-23.33-.17-46.66.04-69.99.04-4.57-1.16-5.95-5.82-5.88-17.16.27-34.33.11-51.49.1zM104.19 305.5c-27.86.07-49.4 21.65-49.29 49.38.12 27.22 21.96 48.51 49.72 48.46 27.27-.05 48.69-21.59 48.62-48.89-.07-27.73-21.4-49.02-49.05-48.95z"/></g></svg>