<svg xmlns="http://www.w3.org/2000/svg" width="1024" height="1024"><path fill="#ddd" d="M209.28 2.88c-8.64 3.84-26.24 24.32-28.48 33.28-1.28 4.16-1.6 45.44-.96 92.16.96 93.76 1.6 95.68 22.72 108.48 8.96 5.44 16.32 6.4 54.72 6.4 40.96 0 45.76-.64 55.04-7.04 20.48-14.08 20.8-16.64 22.72-110.72 1.28-84.8 1.28-85.44-6.08-97.92C314.88 3.84 309.12 1.6 259.84.96c-24-.32-46.72.32-50.56 1.92zm512.32.32c-3.52 1.28-11.84 8.32-18.56 15.68L691.2 32v88.32c0 94.72.32 97.28 17.6 113.28 8.32 7.68 10.24 8 57.6 8.96l49.28.96 27.52-25.6 1.92-183.68-8-11.84C824.64 3.52 813.44 0 767.36.32c-21.44 0-42.24 1.28-45.76 2.88z"/><path fill="#ddd" d="M59.84 138.88c-19.2 7.04-39.36 25.6-49.28 46.08L1.6 203.2v374.4c0 311.68.64 376.64 4.48 386.88 5.44 15.68 29.44 41.92 46.72 50.88l12.8 7.04h892.8l15.04-7.36c16.64-8.32 35.52-27.84 43.84-45.44 4.48-10.24 5.12-46.4 5.12-390.4 0-343.04-.64-380.16-5.12-390.72-7.68-16.64-24.32-34.24-42.56-44.8-16-8.96-17.28-9.28-61.76-9.28H867.2v39.04c0 45.12-4.16 58.24-23.36 75.2-17.6 15.36-30.72 18.56-77.44 18.56-36.8-.32-43.52-.96-56.64-7.68-16.64-8-29.76-21.76-36.8-37.76-2.56-6.72-4.16-23.68-4.16-48.96v-38.4H359.36l-2.24 14.72c-.96 8.32-1.92 26.24-1.92 40.32 0 29.12-4.48 41.6-19.52 56s-30.4 19.84-61.12 22.08c-55.36 4.16-88.96-6.72-107.2-34.24-8-11.84-8.64-16-9.92-56l-1.6-42.88h-41.92c-26.56.32-46.4 1.92-54.08 4.48zM979.2 675.2v275.52l-14.4 14.4-14.4 14.08-437.76-.64c-415.68-.96-438.08-1.28-446.4-6.72-5.12-3.2-11.84-10.24-15.04-16-6.08-9.92-6.4-18.24-6.4-281.28 0-255.36.32-271.04 5.76-272.32 2.88-.96 213.12-1.6 467.2-1.92L979.2 400v275.2z"/><path fill="#ddd" d="M331.2 493.12c-22.4 4.48-52.16 19.52-69.76 34.88-15.04 13.44-32.32 43.52-36.16 63.04l-1.92 10.56h86.4L312 592c6.72-30.4 45.76-47.36 75.2-32.64 16.96 8.32 25.6 23.68 25.6 45.12 0 30.4-8 41.6-78.4 114.24-68.16 70.4-80.96 85.76-93.44 112.64-7.68 16.32-16.96 45.76-16.96 54.08 0 3.2 28.8 4.16 132.8 4.16h132.8v-67.2l-77.44-.64-77.76-.96 61.12-62.4c65.6-67.2 80.96-88.32 89.6-121.92 15.36-59.52-11.84-117.44-64.32-136.96-20.48-7.68-66.88-10.88-89.6-6.4zm268.16 123.52L512 743.68v59.52h156.8v86.4h86.4v-86.08l46.4-1.92-.32-31.36c-.32-17.28-1.28-32-1.92-32.96-.96-.64-11.2-2.24-23.04-3.52l-21.12-1.92V489.6h-68.8l-87.04 127.04zm69.44 61.76v54.4h-77.12l36.16-54.08c19.84-30.08 37.12-54.4 38.72-54.4 1.28-.32 2.24 24 2.24 54.08z"/></svg>