<svg xmlns="http://www.w3.org/2000/svg" width="20" height="24" viewBox="0 0 451 448"><path fill="#1ab9ce" d="M95.201 194.813c34.909 68.284 91.045 124.484 159.393 160.16l53.898-53.898c6.074-6.074 15.92-8.375 24.296-5.307 27.365 8.376 56.903 13.682 86.569 13.682 13.682 0 24.296 10.613 24.296 24.296v84.268c0 13.682-10.613 24.296-24.296 24.296-227.74 0-412.196-184.456-412.196-412.196 0-13.682 10.613-24.296 24.296-24.296h85.035c12.915 0 24.296 10.613 24.296 24.296 0 30.37 4.54 59.205 13.682 86.569 3.005 8.376.767 18.222-6.074 25.063l-53.195 53.067z"/><path fill="#1ab9ce" d="M296.855 162.653h20.779c5.562 0 10.102 4.54 10.102 10.102v20.779c0 5.562-4.539 10.102-10.102 10.102h-20.779c-5.562 0-10.102-4.54-10.102-10.102v-20.779c0-5.562 4.539-10.102 10.102-10.102zm-102.297 0h20.779c5.562 0 10.102 4.54 10.102 10.102v20.779c0 5.562-4.54 10.102-10.102 10.102h-20.779c-5.562 0-10.102-4.54-10.102-10.102v-20.779c0-5.626 4.54-10.102 10.102-10.102zm204.595 0h20.779c5.562 0 10.102 4.54 10.102 10.102v20.779c0 5.562-4.539 10.102-10.102 10.102h-20.779c-5.562 0-10.102-4.54-10.102-10.102v-20.779c0-5.562 4.539-10.102 10.102-10.102z"/></svg>