<svg version="1.1" xmlns="http://www.w3.org/2000/svg" width="1024" height="1024" viewBox="0 0 1024 1024">
<title></title>
<g id="icomoon-ignore">
</g>
<path fill="#ddd" d="M209.28 2.88c-8.64 3.84-26.24 24.32-28.48 33.28-1.28 4.16-1.6 45.44-0.96 92.16 0.96 93.76 1.6 95.68 22.72 108.48 8.96 5.44 16.32 6.4 54.72 6.4 40.96 0 45.76-0.64 55.040-7.040 20.48-14.080 20.8-16.64 22.72-110.72 1.28-84.8 1.28-85.44-6.080-97.92-14.080-23.68-19.84-25.92-69.12-26.56-24-0.32-46.72 0.32-50.56 1.92z"></path>
<path fill="#ddd" d="M721.6 3.2c-3.52 1.28-11.84 8.32-18.56 15.68l-11.84 13.12v88.32c0 94.72 0.32 97.28 17.6 113.28 8.32 7.68 10.24 8 57.6 8.96l49.28 0.96 27.52-25.6 1.92-183.68-8-11.84c-12.48-18.88-23.68-22.4-69.76-22.080-21.44 0-42.24 1.28-45.76 2.88z"></path>
<path fill="#ddd" d="M59.84 138.88c-19.2 7.040-39.36 25.6-49.28 46.080l-8.96 18.24v374.4c0 311.68 0.64 376.64 4.48 386.88 5.44 15.68 29.44 41.92 46.72 50.88l12.8 7.040h892.8l15.040-7.36c16.64-8.32 35.52-27.84 43.84-45.44 4.48-10.24 5.12-46.4 5.12-390.4 0-343.040-0.64-380.16-5.12-390.72-7.68-16.64-24.32-34.24-42.56-44.8-16-8.96-17.28-9.28-61.76-9.28h-45.76v39.040c0 45.12-4.16 58.24-23.36 75.2-17.6 15.36-30.72 18.56-77.44 18.56-36.8-0.32-43.52-0.96-56.64-7.68-16.64-8-29.76-21.76-36.8-37.76-2.56-6.72-4.16-23.68-4.16-48.96v-38.4h-309.44l-2.24 14.72c-0.96 8.32-1.92 26.24-1.92 40.32 0 29.12-4.48 41.6-19.52 56s-30.4 19.84-61.12 22.080c-55.36 4.16-88.96-6.72-107.2-34.24-8-11.84-8.64-16-9.92-56l-1.6-42.88h-41.92c-26.56 0.32-46.4 1.92-54.080 4.48zM979.2 675.2v275.52l-14.4 14.4-14.4 14.080-437.76-0.64c-415.68-0.96-438.080-1.28-446.4-6.72-5.12-3.2-11.84-10.24-15.040-16-6.080-9.92-6.4-18.24-6.4-281.28 0-255.36 0.32-271.040 5.76-272.32 2.88-0.96 213.12-1.6 467.2-1.92l461.44-0.32v275.2z"></path>
<path fill="#ddd" d="M331.2 493.12c-22.4 4.48-52.16 19.52-69.76 34.88-15.040 13.44-32.32 43.52-36.16 63.040l-1.92 10.56h86.4l2.24-9.6c6.72-30.4 45.76-47.36 75.2-32.64 16.96 8.32 25.6 23.68 25.6 45.12 0 30.4-8 41.6-78.4 114.24-68.16 70.4-80.96 85.76-93.44 112.64-7.68 16.32-16.96 45.76-16.96 54.080 0 3.2 28.8 4.16 132.8 4.16h132.8v-67.2l-77.44-0.64-77.76-0.96 61.12-62.4c65.6-67.2 80.96-88.32 89.6-121.92 15.36-59.52-11.84-117.44-64.32-136.96-20.48-7.68-66.88-10.88-89.6-6.4z"></path>
<path fill="#ddd" d="M599.36 616.64l-87.36 127.040v59.52h156.8v86.4h86.4v-86.080l46.4-1.92-0.32-31.36c-0.32-17.28-1.28-32-1.92-32.96-0.96-0.64-11.2-2.24-23.040-3.52l-21.12-1.92v-242.24h-68.8l-87.040 127.040zM668.8 678.4v54.4h-77.12l36.16-54.080c19.84-30.080 37.12-54.4 38.72-54.4 1.28-0.32 2.24 24 2.24 54.080z"></path>
</svg>
