<!-- Generated by IcoMoon.io -->
<svg version="1.1" xmlns="http://www.w3.org/2000/svg" width="601" height="512" viewBox="0 0 601 512">
<title></title>
<g id="icomoon-ignore">
    <line stroke-width="1" x1="16" y1="0" x2="16" y2="512" stroke="#449FDB" opacity="0.3"></line>
    <line stroke-width="1" x1="32" y1="0" x2="32" y2="512" stroke="#449FDB" opacity="1"></line>
    <line stroke-width="1" x1="48" y1="0" x2="48" y2="512" stroke="#449FDB" opacity="0.3"></line>
    <line stroke-width="1" x1="64" y1="0" x2="64" y2="512" stroke="#449FDB" opacity="1"></line>
    <line stroke-width="1" x1="80" y1="0" x2="80" y2="512" stroke="#449FDB" opacity="0.3"></line>
    <line stroke-width="1" x1="96" y1="0" x2="96" y2="512" stroke="#449FDB" opacity="1"></line>
    <line stroke-width="1" x1="112" y1="0" x2="112" y2="512" stroke="#449FDB" opacity="0.3"></line>
    <line stroke-width="1" x1="128" y1="0" x2="128" y2="512" stroke="#449FDB" opacity="1"></line>
    <line stroke-width="1" x1="144" y1="0" x2="144" y2="512" stroke="#449FDB" opacity="0.3"></line>
    <line stroke-width="1" x1="160" y1="0" x2="160" y2="512" stroke="#449FDB" opacity="1"></line>
    <line stroke-width="1" x1="176" y1="0" x2="176" y2="512" stroke="#449FDB" opacity="0.3"></line>
    <line stroke-width="1" x1="192" y1="0" x2="192" y2="512" stroke="#449FDB" opacity="1"></line>
    <line stroke-width="1" x1="208" y1="0" x2="208" y2="512" stroke="#449FDB" opacity="0.3"></line>
    <line stroke-width="1" x1="224" y1="0" x2="224" y2="512" stroke="#449FDB" opacity="1"></line>
    <line stroke-width="1" x1="240" y1="0" x2="240" y2="512" stroke="#449FDB" opacity="0.3"></line>
    <line stroke-width="1" x1="256" y1="0" x2="256" y2="512" stroke="#449FDB" opacity="1"></line>
    <line stroke-width="1" x1="272" y1="0" x2="272" y2="512" stroke="#449FDB" opacity="0.3"></line>
    <line stroke-width="1" x1="288" y1="0" x2="288" y2="512" stroke="#449FDB" opacity="1"></line>
    <line stroke-width="1" x1="304" y1="0" x2="304" y2="512" stroke="#449FDB" opacity="0.3"></line>
    <line stroke-width="1" x1="320" y1="0" x2="320" y2="512" stroke="#449FDB" opacity="1"></line>
    <line stroke-width="1" x1="336" y1="0" x2="336" y2="512" stroke="#449FDB" opacity="0.3"></line>
    <line stroke-width="1" x1="352" y1="0" x2="352" y2="512" stroke="#449FDB" opacity="1"></line>
    <line stroke-width="1" x1="368" y1="0" x2="368" y2="512" stroke="#449FDB" opacity="0.3"></line>
    <line stroke-width="1" x1="384" y1="0" x2="384" y2="512" stroke="#449FDB" opacity="1"></line>
    <line stroke-width="1" x1="400" y1="0" x2="400" y2="512" stroke="#449FDB" opacity="0.3"></line>
    <line stroke-width="1" x1="416" y1="0" x2="416" y2="512" stroke="#449FDB" opacity="1"></line>
    <line stroke-width="1" x1="432" y1="0" x2="432" y2="512" stroke="#449FDB" opacity="0.3"></line>
    <line stroke-width="1" x1="448" y1="0" x2="448" y2="512" stroke="#449FDB" opacity="1"></line>
    <line stroke-width="1" x1="464" y1="0" x2="464" y2="512" stroke="#449FDB" opacity="0.3"></line>
    <line stroke-width="1" x1="480" y1="0" x2="480" y2="512" stroke="#449FDB" opacity="1"></line>
    <line stroke-width="1" x1="496" y1="0" x2="496" y2="512" stroke="#449FDB" opacity="0.3"></line>
    <line stroke-width="1" x1="512" y1="0" x2="512" y2="512" stroke="#449FDB" opacity="1"></line>
    <line stroke-width="1" x1="528" y1="0" x2="528" y2="512" stroke="#449FDB" opacity="0.3"></line>
    <line stroke-width="1" x1="544" y1="0" x2="544" y2="512" stroke="#449FDB" opacity="1"></line>
    <line stroke-width="1" x1="560" y1="0" x2="560" y2="512" stroke="#449FDB" opacity="0.3"></line>
    <line stroke-width="1" x1="576" y1="0" x2="576" y2="512" stroke="#449FDB" opacity="1"></line>
    <line stroke-width="1" x1="592" y1="0" x2="592" y2="512" stroke="#449FDB" opacity="0.3"></line>
    <line stroke-width="1" x1="0" y1="16" x2="601" y2="16" stroke="#449FDB" opacity="0.3"></line>
    <line stroke-width="1" x1="0" y1="32" x2="601" y2="32" stroke="#449FDB" opacity="1"></line>
    <line stroke-width="1" x1="0" y1="48" x2="601" y2="48" stroke="#449FDB" opacity="0.3"></line>
    <line stroke-width="1" x1="0" y1="64" x2="601" y2="64" stroke="#449FDB" opacity="1"></line>
    <line stroke-width="1" x1="0" y1="80" x2="601" y2="80" stroke="#449FDB" opacity="0.3"></line>
    <line stroke-width="1" x1="0" y1="96" x2="601" y2="96" stroke="#449FDB" opacity="1"></line>
    <line stroke-width="1" x1="0" y1="112" x2="601" y2="112" stroke="#449FDB" opacity="0.3"></line>
    <line stroke-width="1" x1="0" y1="128" x2="601" y2="128" stroke="#449FDB" opacity="1"></line>
    <line stroke-width="1" x1="0" y1="144" x2="601" y2="144" stroke="#449FDB" opacity="0.3"></line>
    <line stroke-width="1" x1="0" y1="160" x2="601" y2="160" stroke="#449FDB" opacity="1"></line>
    <line stroke-width="1" x1="0" y1="176" x2="601" y2="176" stroke="#449FDB" opacity="0.3"></line>
    <line stroke-width="1" x1="0" y1="192" x2="601" y2="192" stroke="#449FDB" opacity="1"></line>
    <line stroke-width="1" x1="0" y1="208" x2="601" y2="208" stroke="#449FDB" opacity="0.3"></line>
    <line stroke-width="1" x1="0" y1="224" x2="601" y2="224" stroke="#449FDB" opacity="1"></line>
    <line stroke-width="1" x1="0" y1="240" x2="601" y2="240" stroke="#449FDB" opacity="0.3"></line>
    <line stroke-width="1" x1="0" y1="256" x2="601" y2="256" stroke="#449FDB" opacity="1"></line>
    <line stroke-width="1" x1="0" y1="272" x2="601" y2="272" stroke="#449FDB" opacity="0.3"></line>
    <line stroke-width="1" x1="0" y1="288" x2="601" y2="288" stroke="#449FDB" opacity="1"></line>
    <line stroke-width="1" x1="0" y1="304" x2="601" y2="304" stroke="#449FDB" opacity="0.3"></line>
    <line stroke-width="1" x1="0" y1="320" x2="601" y2="320" stroke="#449FDB" opacity="1"></line>
    <line stroke-width="1" x1="0" y1="336" x2="601" y2="336" stroke="#449FDB" opacity="0.3"></line>
    <line stroke-width="1" x1="0" y1="352" x2="601" y2="352" stroke="#449FDB" opacity="1"></line>
    <line stroke-width="1" x1="0" y1="368" x2="601" y2="368" stroke="#449FDB" opacity="0.3"></line>
    <line stroke-width="1" x1="0" y1="384" x2="601" y2="384" stroke="#449FDB" opacity="1"></line>
    <line stroke-width="1" x1="0" y1="400" x2="601" y2="400" stroke="#449FDB" opacity="0.3"></line>
    <line stroke-width="1" x1="0" y1="416" x2="601" y2="416" stroke="#449FDB" opacity="1"></line>
    <line stroke-width="1" x1="0" y1="432" x2="601" y2="432" stroke="#449FDB" opacity="0.3"></line>
    <line stroke-width="1" x1="0" y1="448" x2="601" y2="448" stroke="#449FDB" opacity="1"></line>
    <line stroke-width="1" x1="0" y1="464" x2="601" y2="464" stroke="#449FDB" opacity="0.3"></line>
    <line stroke-width="1" x1="0" y1="480" x2="601" y2="480" stroke="#449FDB" opacity="1"></line>
    <line stroke-width="1" x1="0" y1="496" x2="601" y2="496" stroke="#449FDB" opacity="0.3"></line>
</g>
<path fill="#d7efff" d="M165.343 52.967h406.83c12.893 0 23.343 10.452 23.343 23.343v406.83c0 12.892-10.452 23.344-23.343 23.344h-406.83c-12.893 0-23.344-10.452-23.344-23.344v-406.83c0-12.892 10.452-23.343 23.344-23.343z"></path>
<path fill="#4a4a4a" d="M567.971 512h-398.438c-18.226 0-33.049-14.823-33.049-33.050v-398.438c0-18.227 14.823-33.050 33.049-33.050h398.438c18.226 0 33.049 14.823 33.049 33.050v398.415c0 18.226-14.823 33.050-33.049 33.050zM169.532 58.483c-12.159 0-22.029 9.894-22.029 22.029v398.415c0 12.159 9.894 22.029 22.029 22.029h398.438c12.159 0 22.029-9.894 22.029-22.029v-398.415c0-12.159-9.894-22.029-22.029-22.029z"></path>
<path fill="#068292" d="M165.331 52.967h406.842c12.886 0 23.343 10.457 23.343 23.343v92.589h-453.517v-92.588c0-12.886 10.457-23.343 23.344-23.343z"></path>
<path fill="#4a4a4a" d="M601.020 174.403h-464.538v-93.891c0-18.227 14.823-33.050 33.049-33.050h398.438c18.226 0 33.049 14.823 33.049 33.050zM147.503 163.382h442.497v-82.871c0-12.159-9.894-22.029-22.029-22.029h-398.438c-12.159 0-22.029 9.894-22.029 22.029z"></path>
<path fill="#f3f9ff" d="M94.9 52.967h406.842c12.886 0 23.343 10.457 23.343 23.343v385.247c0 24.788-20.139 44.927-44.927 44.927h-385.259c-12.886 0-23.344-10.457-23.344-23.344v-406.83c0-12.886 10.457-23.343 23.344-23.343z"></path>
<path fill="#4a4a4a" d="M472.050 512h-372.947c-18.227 0-33.049-14.823-33.049-33.050v-398.438c0-18.227 14.823-33.050 33.049-33.050h398.415c18.226 0 33.049 14.823 33.049 33.050v372.947c0 32.275-26.255 58.529-58.529 58.529h0.024zM99.102 58.483c-12.159 0-22.029 9.894-22.029 22.029v398.415c0 12.159 9.894 22.029 22.029 22.029h372.947c26.184 0 47.52-21.313 47.52-47.52v-372.924c0-12.159-9.894-22.029-22.029-22.029z"></path>
<path fill="#31c1d4" d="M94.9 52.967h406.842c12.886 0 23.343 10.457 23.343 23.343v92.589h-453.529v-92.588c0-12.886 10.457-23.343 23.344-23.343z"></path>
<path fill="#4a4a4a" d="M530.555 174.403h-464.503v-93.891c0-18.227 14.823-33.050 33.049-33.050h398.415c18.226 0 33.049 14.823 33.049 33.050v93.891zM77.037 163.382h442.509v-82.871c0-12.159-9.894-22.029-22.029-22.029h-398.415c-12.159 0-22.029 9.894-22.029 22.029v82.871h-0.023z"></path>
<path fill="#dcfdff" d="M156.786 95.863c0 8.044-6.521 14.565-14.565 14.565s-14.565-6.521-14.565-14.565c0-8.044 6.521-14.565 14.565-14.565s14.565 6.521 14.565 14.565z"></path>
<path fill="#4a4a4a" d="M142.221 115.944c-11.067 0-20.069-9.014-20.069-20.069s9.014-20.069 20.069-20.069 20.069 9.014 20.069 20.069-9.013 20.069-20.069 20.069zM142.221 86.814c-5 0-9.060 4.061-9.060 9.061s4.061 9.061 9.060 9.061 9.060-4.061 9.060-9.061-4.061-9.061-9.060-9.061z"></path>
<path fill="#dcfdff" d="M260.677 94.983c0 8.044-6.521 14.565-14.565 14.565s-14.565-6.521-14.565-14.565c0-8.044 6.521-14.565 14.565-14.565s14.565 6.521 14.565 14.565z"></path>
<path fill="#4a4a4a" d="M246.112 115.052c-11.067 0-20.069-9.014-20.069-20.069s9.013-20.069 20.069-20.069 20.069 9.014 20.069 20.069-9.014 20.069-20.069 20.069zM246.112 85.922c-5 0-9.060 4.061-9.060 9.061s4.061 9.061 9.060 9.061 9.060-4.061 9.060-9.061-4.061-9.061-9.060-9.061z"></path>
<path fill="#dcfdff" d="M260.677 95.863c0 8.044-6.521 14.565-14.565 14.565s-14.565-6.521-14.565-14.565c0-8.044 6.521-14.565 14.565-14.565s14.565 6.521 14.565 14.565z"></path>
<path fill="#4a4a4a" d="M246.112 115.944c-11.067 0-20.069-9.014-20.069-20.069s9.013-20.069 20.069-20.069 20.069 9.014 20.069 20.069-9.014 20.069-20.069 20.069zM246.112 86.814c-5 0-9.060 4.061-9.060 9.061s4.061 9.061 9.060 9.061 9.060-4.061 9.060-9.061-4.061-9.061-9.060-9.061z"></path>
<path fill="#dcfdff" d="M364.579 96.379c0 8.044-6.521 14.565-14.565 14.565s-14.565-6.521-14.565-14.565c0-8.044 6.521-14.565 14.565-14.565s14.565 6.521 14.565 14.565z"></path>
<path fill="#4a4a4a" d="M350.014 116.448c-11.067 0-20.069-9.013-20.069-20.069s9.014-20.069 20.069-20.069 20.069 9.013 20.069 20.069-9.014 20.069-20.069 20.069zM350.014 87.319c-5 0-9.060 4.061-9.060 9.061s4.061 9.061 9.060 9.061 9.060-4.061 9.060-9.061-4.061-9.061-9.060-9.061z"></path>
<path fill="#dcfdff" d="M468.458 96.872c0 8.044-6.521 14.565-14.565 14.565s-14.565-6.521-14.565-14.565c0-8.044 6.521-14.565 14.565-14.565s14.565 6.521 14.565 14.565z"></path>
<path fill="#4a4a4a" d="M453.893 116.942c-11.067 0-20.069-9.014-20.069-20.069s9.014-20.069 20.069-20.069 20.069 9.014 20.069 20.069-9.014 20.069-20.069 20.069zM453.893 87.811c-5 0-9.060 4.061-9.060 9.061s4.061 9.061 9.060 9.061 9.060-4.061 9.060-9.061-4.061-9.061-9.060-9.061z"></path>
<path fill="#4a4a4a" d="M142.221 101.379c-13.931 0-27.404-5.833-36.946-15.985-9.683-10.293-14.518-23.778-13.65-37.92 1.585-25.433 21.936-45.807 47.356-47.368 14.143-0.915 27.627 3.967 37.921 13.649 10.152 9.541 15.985 23.015 15.985 36.946 0 3.039-2.476 5.505-5.505 5.505s-5.505-2.477-5.505-5.505c0-11.068-4.436-21.337-12.511-28.919-8.051-7.582-18.625-11.361-29.705-10.692-19.882 1.232-35.82 17.159-37.064 37.063-0.704 11.091 3.099 21.63 10.692 29.705 7.582 8.075 17.851 12.511 28.918 12.511 3.040 0 5.505 2.477 5.505 5.505s-2.476 5.505-5.505 5.505l0.024-0.023z"></path>
<path fill="#4a4a4a" d="M246.112 101.883c-13.931 0-27.405-5.833-36.946-15.985-9.683-10.293-14.518-23.778-13.649-37.92 1.584-25.421 21.935-45.795 47.356-47.38 14.166-0.892 27.627 3.967 37.921 13.649 10.152 9.541 15.985 23.015 15.985 36.946 0 3.039-2.476 5.505-5.505 5.505s-5.505-2.477-5.505-5.505c0-11.068-4.437-21.337-12.511-28.919-8.051-7.582-18.602-11.361-29.705-10.692-19.881 1.232-35.82 17.159-37.064 37.063-0.704 11.091 3.099 21.63 10.692 29.705 7.582 8.075 17.851 12.511 28.918 12.511 3.040 0 5.505 2.477 5.505 5.505s-2.476 5.505-5.505 5.505h0.024z"></path>
<path fill="#4a4a4a" d="M350.014 102.376c-13.931 0-27.404-5.833-36.946-15.985-9.683-10.293-14.518-23.778-13.649-37.92 1.584-25.421 21.935-45.795 47.38-47.356 14.19-0.892 27.627 3.967 37.921 13.649 10.152 9.541 15.985 23.015 15.985 36.946 0 3.039-2.476 5.505-5.505 5.505s-5.505-2.477-5.505-5.505c0-11.068-4.437-21.337-12.511-28.919-8.051-7.582-18.625-11.361-29.705-10.692-19.882 1.232-35.82 17.159-37.063 37.063-0.704 11.091 3.099 21.63 10.692 29.705 7.582 8.075 17.851 12.511 28.918 12.511 3.039 0 5.505 2.477 5.505 5.505s-2.476 5.505-5.505 5.505v-0.023z"></path>
<path fill="#4a4a4a" d="M453.893 102.893c-13.931 0-27.404-5.833-36.946-15.985-9.683-10.293-14.518-23.778-13.649-37.92 1.584-25.421 21.935-45.795 47.356-47.356 14.166-0.892 27.627 3.967 37.921 13.649 10.152 9.541 15.985 23.015 15.985 36.946 0 3.039-2.476 5.505-5.505 5.505s-5.505-2.477-5.505-5.505c0-11.068-4.437-21.337-12.511-28.919-8.051-7.582-18.625-11.361-29.705-10.692-19.882 1.232-35.82 17.159-37.063 37.063-0.704 11.091 3.099 21.63 10.692 29.705 7.582 8.075 17.851 12.511 28.918 12.511 3.039 0 5.505 2.477 5.505 5.505s-2.476 5.505-5.505 5.505l0.024-0.023z"></path>
<path fill="#4a4a4a" d="M458.517 463.388c-3.039 0-5.505-2.476-5.505-5.505s2.476-5.505 5.505-5.505c33.378 0 60.536-27.17 60.536-60.536 0-3.039 2.476-5.505 5.505-5.505s5.505 2.476 5.505 5.505c0 39.469-32.087 71.557-71.557 71.557z"></path>
<path fill="#4a4a4a" d="M144.393 418.59v-39.399l79.608-104.654c3.615-4.671 6.42-9.495 8.38-14.447s2.946-9.541 2.946-13.791v-0.328c0-6.279-2.030-11.114-6.067-14.518s-9.776-5.117-17.229-5.117-12.957 2.359-17.452 7.101c-4.53 4.742-7.253 11.454-8.215 20.186v0.165h-44.833v-0.165c1.49-22.006 8.544-39.094 21.149-51.206 12.605-12.136 28.965-18.179 49.058-18.179 21.794 0 38.695 5.269 50.666 15.797s17.945 25.421 17.945 44.668v0.165c0 10.528-1.842 20.984-5.505 31.348s-8.803 19.764-15.398 28.168l-57.109 72.12h79.28v42.122l-137.222-0.047z"></path>
<path fill="#4a4a4a" d="M303.938 383.005v-40.209l71.463-156.024h49.457l-69.55 154.111h104.184v42.122zM397.594 418.743v-136.577h43.718v136.577z"></path>
<path fill="#d7efff" d="M458.517 457.872h-386.961c-36.477 0-66.052-29.575-66.052-66.053h386.984c0 36.476 29.552 66.053 66.029 66.053z"></path>
<path fill="#4a4a4a" d="M458.517 463.388h-386.961c-39.517 0-71.557-32.041-71.557-71.557 0-3.039 2.477-5.505 5.505-5.505h386.984c3.039 0 5.505 2.476 5.505 5.505 0 33.378 27.147 60.536 60.513 60.536v11.021zM17.616 397.336c-3.427 0-6.091 3.099-5.434 6.443 5.552 27.675 30.057 48.565 59.351 48.565h348.864c-17.346-10.974-29.658-29.176-32.697-50.337-0.399-2.711-2.711-4.695-5.434-4.695h-364.649z"></path>
</svg>
