<svg id="_Слой_2" data-name="Слой 2" xmlns="http://www.w3.org/2000/svg" viewBox="0 0 47.86 35.44"><defs><style>.cls-1{fill:#fff}</style></defs><g id="_Слой_1-2" data-name="Слой 1"><path class="cls-1" d="M21.35 11.42c-.2.31-.31.53-.45.72-.72.97-1.46 1.92-2.17 2.9-1.33 1.81-.94 4.32.84 5.59 1.86 1.31 4.27.86 5.62-.98 1.95-2.68 3.93-5.32 5.92-7.97.12-.16.41-.29.62-.29 4.5-.02 9-.02 13.5 0 .43 0 .87.1 1.28.24 1.39.51 1.83 2.2.73 3.17-.49.43-1.33.47-2.03.62-.36.08-.75-.02-1.12.04-.18.03-.45.23-.49.39-.82 3.65-1.62 7.3-2.42 10.95-.47 2.13-.91 4.27-1.41 6.39-.24 1-.97 1.65-1.93 1.96-.58.19-1.22.28-1.84.28-8.06.02-16.12.01-24.18 0-2.25 0-3.5-.91-3.92-2.8-.08-.37-.16-.73-.24-1.09-1.06-4.83-2.13-9.66-3.2-14.49-.05-.24-.14-.48-.19-.72-.2-.88-.2-.85-1.11-.9-.64-.03-1.29-.1-1.91-.25-.77-.2-1.22-.84-1.25-1.67-.03-.86.37-1.57 1.13-1.83.5-.17 1.05-.3 1.58-.3 6-.02 12-.01 17.99-.01.16 0 .33.02.65.05zM15.9 27.41v-3.06c-.05-1.05-.9-1.89-1.94-1.9-1.04 0-1.96.75-1.98 1.78-.04 2.08-.05 4.17 0 6.25.04 1.2.92 1.95 2.04 1.9 1.09-.05 1.86-.89 1.86-2.09v-2.87zm9.97.06c0-1.04.02-2.08 0-3.12a1.95 1.95 0 00-1.93-1.89c-1.07 0-1.97.78-1.98 1.84-.03 2.04-.04 4.08 0 6.12.03 1.23.91 2.01 2.05 1.96 1.09-.05 1.85-.89 1.86-2.09v-2.81zm6.07-.13c0 .96-.01 1.92 0 2.87.01.66.15 1.29.72 1.72.68.51 1.41.6 2.17.21.72-.37 1.02-1.03 1.03-1.8.02-1.94.01-3.87 0-5.81 0-1.21-.81-2.08-1.93-2.09-1.17-.02-1.99.84-2 2.08v2.81z"/><path class="cls-1" d="M35.32 2.37c-.17.3-.45.89-.83 1.41-2.8 3.8-5.62 7.59-8.43 11.38-.87 1.17-1.71 2.36-2.57 3.53-.45.61-1.1.69-1.78.66-.77-.04-1.31-.45-1.57-1.14-.27-.73-.25-1.45.25-2.13C24.15 11.02 27.9 5.95 31.66.89 32.24.1 33.1-.16 33.98.13c.82.27 1.31.97 1.34 2.26z"/></g></svg>