<svg xmlns="http://www.w3.org/2000/svg" width="456" height="448"><path fill="#ddd" d="M232.668 44.871c-49.616.745-91.498 17.703-126.418 51.587-4.359 4.233-9.155 7.259-15.41 7.733-9.572.72-18.36-4.176-22.397-12.705-4.107-8.681-2.603-18.866 4.429-25.632 6.741-6.489 13.654-12.87 21.007-18.638 28.134-22.069 59.908-36.354 94.966-43.19C208.222.248 227.79-.814 247.533.602c42.255 3.033 80.751 16.597 114.957 41.497 47.069 34.263 76.594 80.107 88.611 137.158 3.993 18.954 5.326 38.142 4.176 57.4-6.015 100.419-75.475 180.026-166.36 203.871-22.549 5.914-45.49 8.504-68.702 7.114-56.963-3.412-106.061-24.956-146.85-65.038-9.281-9.123-9.496-23.238-.644-32.291 8.839-9.041 22.979-9.218 32.266-.038 18.841 18.626 40.518 32.728 65.423 41.813 22.082 8.056 44.858 11.423 68.368 10.595 72.341-2.54 133.81-49.3 158.943-112.145 7.43-18.581 11.575-37.852 12.604-57.88 3.936-76.802-41.769-144.715-108.475-173.348-16.894-7.253-34.516-11.903-52.889-13.394-5.762-.468-11.543-.739-16.288-1.036z"/><path fill="#ddd" d="M164.869 241.216c-10.848 0-21.69.07-32.538-.057-2.319-.025-3.235.79-3.993 2.912-8.908 25.063-26.498 40.48-52.654 44.858-33.372 5.585-66.479-16.307-74.136-50.911-8.226-37.195 17.115-73.637 54.613-79.266 31.11-4.669 61.816 14.07 71.874 44.081 1.03 3.077 2.357 3.892 5.497 3.885 57.911-.101 115.822-.076 173.733-.063 8.934 0 16.616 6.514 17.4 14.671.942 9.837-4.562 17.994-13.83 19.542-4.517.752-9.237.297-13.862.347-3.052.038-6.116.139-9.161-.032-2.281-.126-2.9.752-2.856 2.919a319.13 319.13 0 01-.063 15.157c-.259 9.275-7.942 16.654-17.21 16.654-9.123 0-17.008-7.512-17.311-16.686-.171-5.156-.108-10.318-.019-15.479.031-1.914-.606-2.635-2.546-2.559-3.153.12-6.325.171-9.471-.013-2.369-.139-2.78.91-2.774 2.976.063 14.424.057 28.848.019 43.272-.025 9.401-5.478 15.985-14.626 17.792-9.774 1.933-19.839-6.129-19.908-16.13-.101-14.74-.108-29.48.025-44.22.025-2.888-.733-3.759-3.677-3.715-10.842.171-21.69.07-32.532.063zm-99.041-48.2c-17.602.044-31.211 13.678-31.142 31.199.076 17.198 13.874 30.649 31.413 30.617 17.229-.031 30.762-13.641 30.718-30.889-.044-17.52-13.52-30.971-30.99-30.927z"/></svg>