<svg xmlns="http://www.w3.org/2000/svg" width="448" height="448"><path fill="#fff" d="M95.132 195.074c34.559 67.599 90.132 123.235 157.794 158.553l53.358-53.358c6.013-6.013 15.76-8.291 24.052-5.254 27.09 8.292 56.333 13.545 85.701 13.545 13.545 0 24.052 10.507 24.052 24.052v83.422c0 13.545-10.507 24.052-24.052 24.052-225.456 0-408.061-182.605-408.061-408.061 0-13.545 10.507-24.052 24.052-24.052h84.182c12.785 0 24.052 10.507 24.052 24.052 0 30.065 4.494 58.611 13.545 85.701 2.975 8.291.76 18.039-6.013 24.811l-52.661 52.535z"/></svg>