<svg id="Layer_1" viewBox="0 0 512.1 436.25" xmlns="http://www.w3.org/2000/svg" data-name="Layer 1"><g><rect fill="#d7efff" height="386.42" rx="19.89" width="386.42" x="120.99" y="45.13"></rect><path d="m483.94 436.25h-339.49c-15.53 0-28.16-12.63-28.16-28.16v-339.49c0-15.53 12.63-28.16 28.16-28.16h339.49c15.53 0 28.16 12.63 28.16 28.16v339.47c0 15.53-12.63 28.16-28.16 28.16zm-339.49-386.42c-10.36 0-18.77 8.43-18.77 18.77v339.47c0 10.36 8.43 18.77 18.77 18.77h339.49c10.36 0 18.77-8.43 18.77-18.77v-339.47c0-10.36-8.43-18.77-18.77-18.77z" fill="#212f44"></path></g><path d="m140.87 45.13h346.65c10.98 0 19.89 8.91 19.89 19.89v78.89h-386.42v-78.89c0-10.98 8.91-19.89 19.89-19.89z" fill="#c12f2f" style="fill: rgb(246, 128, 56);"></path><path d="m512.1 148.6h-395.81v-80c0-15.53 12.63-28.16 28.16-28.16h339.49c15.53 0 28.16 12.63 28.16 28.16zm-386.42-9.39h377.03v-70.61c0-10.36-8.43-18.77-18.77-18.77h-339.49c-10.36 0-18.77 8.43-18.77 18.77z" fill="#212f44"></path><path d="m80.86 45.13h346.65c10.98 0 19.89 8.91 19.89 19.89v328.25c0 21.12-17.16 38.28-38.28 38.28h-328.26c-10.98 0-19.89-8.91-19.89-19.89v-346.64c0-10.98 8.91-19.89 19.89-19.89z" fill="#f3f9ff"></path><path d="m402.21 436.25h-317.77c-15.53 0-28.16-12.63-28.16-28.16v-339.49c0-15.53 12.63-28.16 28.16-28.16h339.47c15.53 0 28.16 12.63 28.16 28.16v317.77c0 27.5-22.37 49.87-49.87 49.87h.02zm-317.77-386.42c-10.36 0-18.77 8.43-18.77 18.77v339.47c0 10.36 8.43 18.77 18.77 18.77h317.77c22.31 0 40.49-18.16 40.49-40.49v-317.75c0-10.36-8.43-18.77-18.77-18.77z" fill="#212f44"></path><path d="m80.86 45.13h346.65c10.98 0 19.89 8.91 19.89 19.89v78.89h-386.43v-78.89c0-10.98 8.91-19.89 19.89-19.89z" fill="#e24949" style="fill: rgb(249, 149, 83);"></path><path d="m452.06 148.6h-395.78v-80c0-15.53 12.63-28.16 28.16-28.16h339.47c15.53 0 28.16 12.63 28.16 28.16v80zm-386.42-9.39h377.04v-70.61c0-10.36-8.43-18.77-18.77-18.77h-339.47c-10.36 0-18.77 8.43-18.77 18.77v70.61h-.02z" fill="#212f44"></path><g><circle cx="121.18" cy="81.68" fill="#dcfdff" r="12.41"></circle><path d="m121.18 98.79c-9.43 0-17.1-7.68-17.1-17.1s7.68-17.1 17.1-17.1 17.1 7.68 17.1 17.1-7.68 17.1-17.1 17.1zm0-24.82c-4.26 0-7.72 3.46-7.72 7.72s3.46 7.72 7.72 7.72 7.72-3.46 7.72-7.72-3.46-7.72-7.72-7.72z" fill="#212f44"></path></g><g><circle cx="209.7" cy="80.93" fill="#dcfdff" r="12.41"></circle><path d="m209.7 98.03c-9.43 0-17.1-7.68-17.1-17.1s7.68-17.1 17.1-17.1 17.1 7.68 17.1 17.1-7.68 17.1-17.1 17.1zm0-24.82c-4.26 0-7.72 3.46-7.72 7.72s3.46 7.72 7.72 7.72 7.72-3.46 7.72-7.72-3.46-7.72-7.72-7.72z" fill="#212f44"></path></g><g><circle cx="209.7" cy="81.68" fill="#dcfdff" r="12.41"></circle><path d="m209.7 98.79c-9.43 0-17.1-7.68-17.1-17.1s7.68-17.1 17.1-17.1 17.1 7.68 17.1 17.1-7.68 17.1-17.1 17.1zm0-24.82c-4.26 0-7.72 3.46-7.72 7.72s3.46 7.72 7.72 7.72 7.72-3.46 7.72-7.72-3.46-7.72-7.72-7.72z" fill="#212f44"></path></g><g><circle cx="298.23" cy="82.12" fill="#dcfdff" r="12.41"></circle><path d="m298.23 99.22c-9.43 0-17.1-7.68-17.1-17.1s7.68-17.1 17.1-17.1 17.1 7.68 17.1 17.1-7.68 17.1-17.1 17.1zm0-24.82c-4.26 0-7.72 3.46-7.72 7.72s3.46 7.72 7.72 7.72 7.72-3.46 7.72-7.72-3.46-7.72-7.72-7.72z" fill="#212f44"></path></g><g><circle cx="386.74" cy="82.54" fill="#dcfdff" r="12.41"></circle><path d="m386.74 99.64c-9.43 0-17.1-7.68-17.1-17.1s7.68-17.1 17.1-17.1 17.1 7.68 17.1 17.1-7.68 17.1-17.1 17.1zm0-24.82c-4.26 0-7.72 3.46-7.72 7.72s3.46 7.72 7.72 7.72 7.72-3.46 7.72-7.72-3.46-7.72-7.72-7.72z" fill="#212f44"></path></g><g fill="#212f44"><g><path d="m121.18 86.38c-11.87 0-23.35-4.97-31.48-13.62-8.25-8.77-12.37-20.26-11.63-32.31 1.35-21.67 18.69-39.03 40.35-40.36 12.05-.78 23.54 3.38 32.31 11.63 8.65 8.13 13.62 19.61 13.62 31.48 0 2.59-2.11 4.69-4.69 4.69s-4.69-2.11-4.69-4.69c0-9.43-3.78-18.18-10.66-24.64-6.86-6.46-15.87-9.68-25.31-9.11-16.94 1.05-30.52 14.62-31.58 31.58-.6 9.45 2.64 18.43 9.11 25.31 6.46 6.88 15.21 10.66 24.64 10.66 2.59 0 4.69 2.11 4.69 4.69s-2.11 4.69-4.69 4.69l.02-.02z" fill="#000000"></path><path d="m209.7 86.81c-11.87 0-23.35-4.97-31.48-13.62-8.25-8.77-12.37-20.26-11.63-32.31 1.35-21.66 18.69-39.02 40.35-40.37 12.07-.76 23.54 3.38 32.31 11.63 8.65 8.13 13.62 19.61 13.62 31.48 0 2.59-2.11 4.69-4.69 4.69s-4.69-2.11-4.69-4.69c0-9.43-3.78-18.18-10.66-24.64-6.86-6.46-15.85-9.68-25.31-9.11-16.94 1.05-30.52 14.62-31.58 31.58-.6 9.45 2.64 18.43 9.11 25.31 6.46 6.88 15.21 10.66 24.64 10.66 2.59 0 4.69 2.11 4.69 4.69s-2.11 4.69-4.69 4.69h.02z" fill="#000000"></path><path d="m298.23 87.23c-11.87 0-23.35-4.97-31.48-13.62-8.25-8.77-12.37-20.26-11.63-32.31 1.35-21.66 18.69-39.02 40.37-40.35 12.09-.76 23.54 3.38 32.31 11.63 8.65 8.13 13.62 19.61 13.62 31.48 0 2.59-2.11 4.69-4.69 4.69s-4.69-2.11-4.69-4.69c0-9.43-3.78-18.18-10.66-24.64-6.86-6.46-15.87-9.68-25.31-9.11-16.94 1.05-30.52 14.62-31.58 31.58-.6 9.45 2.64 18.43 9.11 25.31 6.46 6.88 15.21 10.66 24.64 10.66 2.59 0 4.69 2.11 4.69 4.69s-2.11 4.69-4.69 4.69v-.02z" fill="#000000"></path><path d="m386.74 87.67c-11.87 0-23.35-4.97-31.48-13.62-8.25-8.77-12.37-20.26-11.63-32.31 1.35-21.66 18.69-39.02 40.35-40.35 12.07-.76 23.54 3.38 32.31 11.63 8.65 8.13 13.62 19.61 13.62 31.48 0 2.59-2.11 4.69-4.69 4.69s-4.69-2.11-4.69-4.69c0-9.43-3.78-18.18-10.66-24.64-6.86-6.46-15.87-9.68-25.31-9.11-16.94 1.05-30.52 14.62-31.58 31.58-.6 9.45 2.64 18.43 9.11 25.31 6.46 6.88 15.21 10.66 24.64 10.66 2.59 0 4.69 2.11 4.69 4.69s-2.11 4.69-4.69 4.69l.02-.02z" fill="#000000"></path></g><path d="m390.68 394.83c-2.59 0-4.69-2.11-4.69-4.69s2.11-4.69 4.69-4.69c28.44 0 51.58-23.15 51.58-51.58 0-2.59 2.11-4.69 4.69-4.69s4.69 2.11 4.69 4.69c0 33.63-27.34 60.97-60.97 60.97z" fill="#212f44"></path><g><path d="m123.03 356.66v-33.57l67.83-89.17c3.08-3.98 5.47-8.09 7.14-12.31s2.51-8.13 2.51-11.75v-.28c0-5.35-1.73-9.47-5.17-12.37s-8.33-4.36-14.68-4.36-11.04 2.01-14.87 6.05c-3.86 4.04-6.18 9.76-7 17.2v.14h-38.2v-.14c1.27-18.75 7.28-33.31 18.02-43.63 10.74-10.34 24.68-15.49 41.8-15.49 18.57 0 32.97 4.49 43.17 13.46s15.29 21.66 15.29 38.06v.14c0 8.97-1.57 17.88-4.69 26.71s-7.5 16.84-13.12 24l-48.66 61.45h67.55v35.89h-116.92v-.04z" fill="#000000"></path><path d="m258.97 326.34v-34.26l60.89-132.94h42.14l-59.26 131.31h88.77v35.89zm79.8 30.45v-116.37h37.25v116.37z" fill="#000000"></path></g></g><g><path d="m390.68 390.13h-329.71c-31.08 0-56.28-25.2-56.28-56.28h329.73c0 31.08 25.18 56.28 56.26 56.28z" fill="#d7efff"></path><path d="m390.68 394.83h-329.71c-33.67 0-60.97-27.3-60.97-60.97 0-2.59 2.11-4.69 4.69-4.69h329.73c2.59 0 4.69 2.11 4.69 4.69 0 28.44 23.13 51.58 51.56 51.58v9.39zm-375.67-56.28c-2.92 0-5.19 2.64-4.63 5.49 4.73 23.58 25.61 41.38 50.57 41.38h297.25c-14.78-9.35-25.27-24.86-27.86-42.89-.34-2.31-2.31-4-4.63-4h-310.7z" fill="#212f44"></path></g></svg>