<svg version="1.1" xmlns="http://www.w3.org/2000/svg" width="505" height="640" viewBox="0 0 505 640">
<title></title>
<g id="icomoon-ignore">
</g>
<path fill="#ddd" d="M334.471 640h-326.361c-0.333-5.166-2.556-11.11-0.777-15.388 12.166-29.164 25.831-57.717 37.719-86.992 20.831-51.217 27.942-101.658-1-153.931-18.221-32.942-29.609-69.716-44.108-104.769 0-41.719 0-83.382 0-125.1 16.387-35.664 31.219-72.161 49.94-106.546 6.055-11.11 21.387-18.498 33.997-24.498 18.054-8.555 37.441-14.332 56.273-21.276 41.607-0.556 83.271-1.056 124.878-1.611 69.216 2.166 132.822 19.609 183.484 69.938 31.886 31.664 31.719 40.663 3.055 74.771-2.777 3.278-5.778 8.111-5.499 11.943 3.666 48.94-18.665 104.324 34.108 141.377 32.942 27.72 32.386 37.608 0.889 68.828-5.999 5.944-7.499 18.609-7.499 28.22 0 43.885-30.275 75.382-46.551 112.324-5.166 11.721-29.664 16.832-46.329 20.887-13.721 3.333-28.886 0.667-46.385 0.667v110.991z"></path>
</svg>
